# xmcd
# Copyright (C) 1995-1998 Ti Kan
#
# Track frame offsets:
#       150
#       10767
#       26317
#       40465
#       87277
#       136332
#       168337
#       190705
#       222395
#       270155
#       298157
#
# Disc length: 4343 seconds
#
# Revision: 0
# Processed by: cddbd v1.4PL0 Copyright (c) Steve Scherf et al.
# Submitted via: CD-Transfer v1.0
#
DISCID=9110f50b
DTITLE=Finnish Radio Symphony Orchestra - Stravinsky
DYEAR=02
DGENRE=
TTITLE0=Introduction
TTITLE1=Marche Chinoise
TTITLE2=Chant du Rossignol
TTITLE3=Jeu du Rossignol Mécanique
TTITLE4=Moderato
TTITLE5=Larghetto Concertante
TTITLE6=Allegretto
TTITLE7=Largo - Tempo giusto
TTITLE8=Symphonie in three movements
TTITLE9=Andante
TTITLE10=Con Moto
EXTD=
EXTT0=
EXTT1=
EXTT2=
EXTT3=
EXTT4=
EXTT5=
EXTT6=
EXTT7=
EXTT8=
EXTT9=
EXTT10=
PLAYORDER=
